<?xml version="1.0" encoding="UTF-8" standalone="no"?>
<!-- Created with Inkscape (http://www.inkscape.org/) -->

<svg
   xmlns:dc="http://purl.org/dc/elements/1.1/"
   xmlns:cc="http://creativecommons.org/ns#"
   xmlns:rdf="http://www.w3.org/1999/02/22-rdf-syntax-ns#"
   xmlns:svg="http://www.w3.org/2000/svg"
   xmlns="http://www.w3.org/2000/svg"
   xmlns:sodipodi="http://sodipodi.sourceforge.net/DTD/sodipodi-0.dtd"
   xmlns:inkscape="http://www.inkscape.org/namespaces/inkscape"
   width="149.22614"
   height="51.370861"
   viewBox="0 0 39.482749 13.591874"
   version="1.1"
   id="svg3366"
   inkscape:version="0.92.0 r15299"
   sodipodi:docname="itw.svg">
  <defs
     id="defs3360">
    <clipPath
       id="clipPath3067"
       clipPathUnits="userSpaceOnUse">
      <path
         inkscape:connector-curvature="0"
         id="path3065"
         d="M 0,0 H 612 V 792 H 0 Z" />
    </clipPath>
  </defs>
  <sodipodi:namedview
     id="base"
     pagecolor="#ffffff"
     bordercolor="#666666"
     borderopacity="1.0"
     inkscape:pageopacity="0.0"
     inkscape:pageshadow="2"
     inkscape:zoom="6.0515641"
     inkscape:cx="74.113071"
     inkscape:cy="25.185446"
     inkscape:document-units="mm"
     inkscape:current-layer="layer1"
     showgrid="false"
     fit-margin-top="0"
     fit-margin-left="0"
     fit-margin-right="0"
     fit-margin-bottom="0"
     units="px"
     inkscape:window-width="1280"
     inkscape:window-height="744"
     inkscape:window-x="-4"
     inkscape:window-y="-4"
     inkscape:window-maximized="1" />
  <metadata
     id="metadata3363">
    <rdf:RDF>
      <cc:Work
         rdf:about="">
        <dc:format>image/svg+xml</dc:format>
        <dc:type
           rdf:resource="http://purl.org/dc/dcmitype/StillImage" />
        <dc:title></dc:title>
      </cc:Work>
    </rdf:RDF>
  </metadata>
  <g
     inkscape:label="Layer 1"
     inkscape:groupmode="layer"
     id="layer1"
     transform="translate(-90.759963,-199.35749)">
    <g
       id="g3432"
       transform="translate(0.13229064,-0.13228762)">
      <path
         d="m 95.055032,199.62212 -4.295069,13.32724 h 0.682272 l 4.295422,-13.32724 z"
         style="fill:#840a2d;fill-opacity:1;fill-rule:nonzero;stroke:none;stroke-width:0.35277778"
         id="path3043"
         inkscape:connector-curvature="0" />
      <path
         d="m 96.13903,199.62212 -4.254853,13.32724 h 0.642056 l 4.295069,-13.32724 z"
         style="fill:#840a2d;fill-opacity:1;fill-rule:nonzero;stroke:none;stroke-width:0.35277778"
         id="path3047"
         inkscape:connector-curvature="0" />
      <path
         d="m 97.222763,199.62212 -4.254853,13.32724 h 0.642056 l 4.295069,-13.32724 z"
         style="fill:#840a2d;fill-opacity:1;fill-rule:nonzero;stroke:none;stroke-width:0.35277778"
         id="path3051"
         inkscape:connector-curvature="0" />
      <path
         d="m 98.306682,199.62212 -4.254853,13.32724 h 0.642056 l 4.295069,-13.32724 z"
         style="fill:#840a2d;fill-opacity:1;fill-rule:nonzero;stroke:none;stroke-width:0.35277778"
         id="path3055"
         inkscape:connector-curvature="0" />
      <path
         d="m 99.631212,199.62212 -0.842786,2.60914 h 4.214634 l -3.411712,10.7181 h 3.973692 l 3.45228,-10.7181 h 3.45193 l 0.84314,-2.60914 z"
         style="fill:#840a2d;fill-opacity:1;fill-rule:nonzero;stroke:none;stroke-width:0.35277778"
         id="path3059"
         inkscape:connector-curvature="0" />
      <path
         d="m 126.44577,200.22426 h 2.48885 l -6.30202,12.08264 h -2.73015 l 0.20108,-9.31263 v -0.48189 c 0,-0.32103 -0.12065,-0.24095 -0.16051,-0.16052 -0.0406,0.0402 -0.32138,0.52176 -0.40146,0.76271 -0.1203,0.20073 -0.80293,1.52541 -1.08409,2.08738 -0.32103,0.56198 -1.24425,2.28777 -1.48484,2.76966 -0.52211,0.92322 -1.80658,3.25156 -1.80658,3.25156 l -0.24094,0.44097 -0.36125,0.64276 h -2.89031 l 0.4819,-12.08264 h 2.72979 l -0.16051,1.72614 c 0,0.28081 -0.16087,2.1276 -0.24095,2.80988 -0.0402,0.6424 -0.16051,1.72614 -0.20108,2.2479 -0.0801,0.52211 -0.16016,1.20403 -0.20038,1.6457 -0.0804,0.44168 -0.0804,0.64241 -0.0804,0.72249 -0.0402,0.12065 0.12065,0.16087 0.20073,0 0.0801,-0.16051 0.48189,-0.96343 0.72249,-1.44497 0.28116,-0.4819 0.56232,-1.04352 0.56232,-1.04352 l 0.2406,-0.44168 3.37185,-6.22194 h 3.05082 l -0.36124,8.8713 c 0,0.20073 -0.0402,0.32103 0,0.36125 0.0402,0.0804 0.12065,0.0402 0.20073,-0.0804 0.0402,-0.0801 0.0801,-0.16051 0.0801,-0.16051 z m 3.53236,-0.60219 h -3.93382 l -2.93053,5.98135 c 0,0 -0.44097,1.0033 -0.56162,1.32468 -0.12065,0.36089 -0.24059,0.64205 -0.24059,0.64205 0,0 0.0801,-0.56197 0.11994,-0.96343 0.0804,-0.40147 0.0804,-0.84279 0.12065,-1.16417 v -0.32103 l 0.2406,-5.49945 h -4.09399 l -2.77001,5.17842 c 0,0 -0.16051,0.2406 -0.2406,0.36125 0,0 -0.16086,0.36124 -0.32138,0.64241 -0.12029,0.28081 -0.20073,0.48154 -0.40146,0.883 -0.12065,0.28116 -0.28081,0.80257 -0.28081,0.80257 0,0 0.16016,-0.60184 0.20073,-0.92287 0.0801,-0.3616 0.1203,-0.64241 0.1203,-0.64241 0,-0.20073 0.0402,-0.48189 0.0402,-0.48189 l 0.52175,-5.82048 h -4.01425 l -0.52176,13.32724 h 3.89361 l 3.81352,-7.06508 c 0,0 0.20073,-0.36125 0.28082,-0.48155 0,0 0.16086,-0.28116 0.28116,-0.56232 0.0804,-0.32103 0.24095,-0.68228 0.24095,-0.68228 0,0 -0.0402,0.32103 -0.0804,0.6022 0,0.20073 -0.0399,0.48189 -0.0399,0.48189 v 0.52176 l -0.16087,7.18538 h 3.7331 z"
         style="fill:#840a2d;fill-opacity:1;fill-rule:nonzero;stroke:none;stroke-width:0.35277778"
         id="path3071"
         inkscape:connector-curvature="0" />
    </g>
  </g>
</svg>
